PathFileType	4	(X/Y/Z)	Patient4_TMGait_0pt7_01_right_11.trc.trc
DataRate	CameraRate	NumFrames	NumMarkers	Units	OrigDataRate	OrigDataStartFrame	OrigNumFrames
85.365853658537	85.365853658537	4	33	mm	85.365853658537	106	       141
Frame#	Time	Sacral			L.Shoulder			Chest			R.Shoulder			Neck			R.ASIS			L.ASIS			R.Thigh.Superior			R.Thigh.Lateral			R.Thigh.Inferior			R.Patella			L.Thigh.Superior			L.Thigh.Lateral			L.Thigh.Inferior			L.Patella			L.Shank.Superior			L.Shank.Lateral			L.Shank.Inferior			R.Shank.Superior			R.Shank.Lateral			R.Shank.Inferior			R.Heel			R.Midfoot.Superior			R.Midfoot.Lateral			R.Toe			L.Heel			L.Midfoot.Lateral			L.Midfoot.Superior			L.Toe			L.Elbow			L.Wrist			R.Elbow			R.Wrist			
		X1	Y1	Z1	X2	Y2	Z2	X3	Y3	Z3	X4	Y4	Z4	X5	Y5	Z5	X6	Y6	Z6	X7	Y7	Z7	X8	Y8	Z8	X9	Y9	Z9	X10	Y10	Z10	X11	Y11	Z11	X12	Y12	Z12	X13	Y13	Z13	X14	Y14	Z14	X15	Y15	Z15	X16	Y16	Z16	X17	Y17	Z17	X18	Y18	Z18	X19	Y19	Z19	X20	Y20	Z20	X21	Y21	Z21	X22	Y22	Z22	X23	Y23	Z23	X24	Y24	Z24	X25	Y25	Z25	X26	Y26	Z26	X27	Y27	Z27	X28	Y28	Z28	X29	Y29	Z29	X30	Y30	Z30	X31	Y31	Z31	X32	Y32	Z32	X33	Y33	Z33	

106	13.290000000000	793.720126256210	1004.774350364871	426.387968663450	996.840005434844	1424.620213646534	242.579072380620	1088.972853555837	1355.615874321745	411.039002593273	1001.397224125865	1443.193396689838	577.068107074803	999.510185376310	1491.754290606487	394.937489961693	1017.359001498596	944.593239071989	552.537098866872	1016.423928939677	968.618743511122	277.851460494195	1119.562025370290	802.158977170732	523.771857592577	1099.963030647151	676.414408322460	599.437452229304	1197.268611038949	652.939742358467	523.273845670537	1235.913998294558	546.080582493124	547.449363370915	1053.091938163944	751.680916288207	308.941135079750	959.318761201014	641.679417992321	241.526017876528	1030.351502506373	558.564876199623	310.570294951059	1024.314054982577	492.127145929917	320.565528276842	1002.814732880285	421.060461052889	309.831617652364	918.872845162652	302.719283415256	259.364672779221	972.679665246374	195.841755409585	335.174716387638	1177.092458810434	457.343342311355	551.548088589208	1066.292872189048	389.264030016473	605.048430524102	1081.354198834262	280.293161667976	557.068716940839	903.170518787039	179.873921913391	517.103403451374	1076.432893628213	151.088514771148	571.942232308035	966.046248378471	132.754110749239	595.855196392437	1155.032316106658	49.691245904769	604.829711041384	849.852069734665	37.432004492225	381.050783801470	921.460313377075	34.215914242815	297.878540137762	1002.388107537789	98.359228092939	322.020491694380	1131.596791712160	51.752803564983	290.828288332151	1032.868318461818	1081.740707871812	115.239065900551	1220.373955689824	901.944325711862	146.677915865873	890.995400179383	1118.960873794897	702.366543394166	1010.122954099636	886.228062777469	694.972806731824	
107	13.301714285714	793.004847809631	1005.076142242000	425.313557319369	998.445375205374	1424.874279153420	242.553306431045	1089.255032020575	1355.140384086282	411.401486362271	1001.178703995344	1442.818273081318	577.051737051631	1000.236219686366	1491.663133362131	394.864910107491	1016.031022258979	944.814652230650	552.503849015455	1016.182508587793	968.502775719276	277.573115597402	1118.379769389358	803.357187430749	523.299655769048	1099.455290997829	677.359581379830	599.181882886583	1196.406563702871	654.097464633816	522.829943900496	1236.392275471393	549.507407693849	547.159835864410	1049.847116297661	750.592968765578	309.035095741182	954.749011127922	641.614522039947	241.171650296971	1024.283489819190	557.670766470905	310.399646536954	1017.532711852218	491.514893115080	320.327036525706	995.771685225042	420.753918212917	309.650759702460	911.469426264554	302.688342990015	259.128473112827	964.777699657700	195.652636657638	335.127372706612	1182.264114379606	459.184855994369	552.157613045012	1076.823328692327	384.744619080053	607.332098343722	1098.303977810386	276.651559653190	559.716484297233	926.832925004478	164.802991160322	522.058600137682	1101.960890817912	147.494060386751	575.540303145263	993.250207574407	122.385604740396	600.460681203886	1186.996693335352	51.574483352091	608.301797277018	841.596309032155	37.435340715020	381.025159751977	913.167888883048	34.181951143841	297.897592339227	994.186983125243	98.223138067748	322.063656505067	1123.345827569424	51.544877425043	290.876936188437	1039.285369527993	1083.955892764499	113.493346896310	1236.902045245124	916.207132559822	148.306185237033	888.020086167294	1119.254430151361	702.537776215544	987.396728700500	876.617671493883	702.352071568481	
108	13.313428571429	792.503226113952	1005.276358131367	424.384395997854	1000.058023971219	1425.038856166157	242.672476685680	1089.665485693047	1354.561878325628	411.826880258721	1001.194751090284	1442.296673522863	577.169836612528	1001.040007173903	1491.451599788087	394.934914180592	1014.951165046457	944.809914270758	552.499443983885	1016.060682639093	968.281970341952	277.335195442792	1116.958396791101	803.604656804929	523.052377204621	1098.011867522135	677.431130896192	599.115680193685	1194.574293242581	654.020406100786	522.634759300278	1235.573482240973	551.913549219397	546.966460747588	1046.727757053090	749.445912877843	309.054134278077	950.260538586995	641.509931082812	240.836773906938	1018.374365745281	556.763831515064	310.160462529043	1010.939662891458	490.870667047438	320.014613619298	988.853702633422	420.429047654246	309.444878007312	904.146544743619	302.659153538923	258.881576517679	956.941300727627	195.441991304142	335.057963787422	1186.395707211325	460.421539021299	552.877689787781	1087.055007822829	379.771450264738	609.903954500273	1115.135455231925	273.026964493002	562.523349583589	951.575047413528	149.730604172572	527.313486633313	1127.767184563261	144.397654667037	579.162274293092	1021.345582916301	112.448937063047	605.268234967266	1219.097487235526	54.682399717888	611.707464094107	833.354560637791	37.462349692495	380.994948979798	904.884625495145	34.152319881915	297.916209620733	986.021454952666	98.069111645084	322.099402924604	1115.110312998319	51.288219383425	290.916979744662	1045.271659648008	1086.075538970250	112.043294062971	1252.163873198516	931.076177178671	150.275899327964	885.248277253496	1119.604926067008	702.969419569092	965.071766380881	869.304046964349	709.359012784729	
109	13.325142857143	792.229250732940	1005.348429215891	423.606895027844	1001.630416778144	1425.098138998465	242.939137594527	1090.193332220160	1353.876390665376	412.305474991181	1001.451346099343	1441.630437280218	577.421792002701	1001.917730374939	1491.110888555114	395.151441204480	1014.160344922077	944.578259714336	552.525598252868	1016.060442538399	967.957461324458	277.140773664940	1115.328438310140	802.857089857773	523.035677819984	1095.683587118015	676.633694198203	599.272967084673	1191.806344446475	652.712376851865	522.675342205623	1233.529046471807	553.282297038733	546.841383836177	1043.785975318111	748.245403329233	308.988037813570	945.890541042593	641.369462389792	240.523176167006	1012.667817158506	555.845495819975	309.856796684727	1004.573050420133	490.186993970464	319.640866349510	982.098474322037	420.080100205142	309.219434946950	896.932741036712	302.635634851453	258.629009034676	949.184872812891	195.208328638957	334.967791742188	1189.485209971701	461.073535099803	553.684129182584	1096.909421421129	374.492426870811	612.707426582560	1131.643587110308	269.583113492340	565.401046447532	977.111318985126	135.016602349623	532.738244626839	1153.516527424368	142.010821726017	582.697635200519	1049.982697418264	103.232523559607	610.142541063119	1250.889031628567	59.172611453742	614.902313972336	825.123754328451	37.514347028984	380.964209900676	896.612460737107	34.130003478484	297.934047529893	977.892482085933	97.896501113693	322.129291242406	1106.892851130864	50.983027371246	290.948708459025	1050.866621806084	1088.063616855220	110.898806136866	1266.101826278701	946.403219549168	152.553139596655	882.501464959517	1120.092739744158	703.597900452332	943.494111036660	864.206557300986	715.892635818565	
